<svg width="450" height="176" viewBox="0 0 450 176" fill="none" xmlns="http://www.w3.org/2000/svg">
<path d="M149.359 17.9084L164.398 103.195L83.0179 73.5755L149.359 17.9084Z" fill="#E9D5FF" fill-opacity="0.5"/>
<path d="M98.0563 158.862L83.0179 73.5755L164.398 103.195L98.0563 158.862Z" fill="#E9D5FF" fill-opacity="0.5"/>
<path d="M98 9L141.301 84H54.6987L98 9Z" fill="#99F6E4" fill-opacity="0.75"/>
<path d="M98 159L54.6987 84L141.301 84L98 159Z" fill="#99F6E4" fill-opacity="0.75"/>
<path d="M47.0562 17.9084L113.398 73.5755L32.0179 103.195L47.0562 17.9084Z" fill="#BFDBFE" fill-opacity="0.5"/>
<path d="M98.3592 158.862L32.0178 103.195L113.398 73.5755L98.3592 158.862Z" fill="#BFDBFE" fill-opacity="0.5"/>
<path d="M194.35 56.9V73H190V38H194.35V53.2H204.65V38H209V73H204.65V56.9H194.35ZM234.852 38V41.65H222.502V53.1H233.602V56.75H222.502V69.35H234.852V73H218.152V38H234.852ZM248.654 64.15L246.704 73H242.254L250.704 38H256.454L264.754 73H260.304L258.404 64.15H248.654ZM257.604 60.4L253.504 41.3L249.454 60.4H257.604ZM277.106 38V69.2H288.256V73H272.756V38H277.106ZM305.308 73V41.8H297.358V38H317.608V41.8H309.658V73H305.308ZM329.36 56.9V73H325.01V38H329.36V53.2H339.66V38H344.01V73H339.66V56.9H329.36ZM200.45 129C197.55 129 195.317 128.3 193.75 126.9C192.217 125.467 191.45 123.333 191.45 120.5V102.5C191.45 99.6667 192.217 97.55 193.75 96.15C195.317 94.7167 197.55 94 200.45 94H207.55V97.8H199.95C198.717 97.8 197.717 98.1667 196.95 98.9C196.183 99.6333 195.8 100.517 195.8 101.55V121.45C195.8 122.483 196.183 123.367 196.95 124.1C197.717 124.833 198.717 125.2 199.95 125.2H207.55V129H200.45ZM221.352 112.9V129H217.002V94H221.352V109.2H231.652V94H236.002V129H231.652V112.9H221.352ZM261.854 94V97.65H249.504V109.1H260.604V112.75H249.504V125.35H261.854V129H245.154V94H261.854ZM281.456 129C278.556 129 276.323 128.3 274.756 126.9C273.223 125.467 272.456 123.333 272.456 120.5V102.5C272.456 99.6667 273.223 97.55 274.756 96.15C276.323 94.7167 278.556 94 281.456 94H288.556V97.8H280.956C279.723 97.8 278.723 98.1667 277.956 98.9C277.189 99.6333 276.806 100.517 276.806 101.55V121.45C276.806 122.483 277.189 123.367 277.956 124.1C278.723 124.833 279.723 125.2 280.956 125.2H288.556V129H281.456ZM302.408 116.1V129H298.058V94H302.408V109.1L311.908 94H316.658L307.008 109.45L317.258 129H312.258L304.308 113.25L302.408 116.1ZM342.86 94V97.65H330.51V109.1H341.61V112.75H330.51V125.35H342.86V129H326.16V94H342.86ZM355.862 114.5V129H351.512V94H360.912C363.745 94 365.878 94.6333 367.312 95.9C368.778 97.1333 369.512 99.1 369.512 101.8V106.6C369.512 110.367 368.012 112.717 365.012 113.65L371.962 129H367.212L360.762 114.5H355.862ZM365.162 101.35C365.162 100.083 364.862 99.1667 364.262 98.6C363.695 98.0333 362.778 97.75 361.512 97.75H355.862V110.75H361.512C362.778 110.75 363.695 110.467 364.262 109.9C364.862 109.3 365.162 108.367 365.162 107.1V101.35Z" fill="#334155"/>
</svg>
